<svg width="239" height="59" viewBox="0 0 239 59" fill="none" xmlns="http://www.w3.org/2000/svg">
<path d="M66.5 50.195L72.8 31.07H79.505L70.28 56H62.63L53.45 31.07H60.2L66.5 50.195ZM106.218 42.995C106.218 43.895 106.158 44.705 106.038 45.425H87.8135C87.9635 47.225 88.5935 48.635 89.7035 49.655C90.8135 50.675 92.1785 51.185 93.7985 51.185C96.1385 51.185 97.8035 50.18 98.7935 48.17H105.588C104.868 50.57 103.488 52.55 101.448 54.11C99.4085 55.64 96.9035 56.405 93.9335 56.405C91.5335 56.405 89.3735 55.88 87.4535 54.83C85.5635 53.75 84.0785 52.235 82.9985 50.285C81.9485 48.335 81.4235 46.085 81.4235 43.535C81.4235 40.955 81.9485 38.69 82.9985 36.74C84.0485 34.79 85.5185 33.29 87.4085 32.24C89.2985 31.19 91.4735 30.665 93.9335 30.665C96.3035 30.665 98.4185 31.175 100.278 32.195C102.168 33.215 103.623 34.67 104.643 36.56C105.693 38.42 106.218 40.565 106.218 42.995ZM99.6935 41.195C99.6635 39.575 99.0785 38.285 97.9385 37.325C96.7985 36.335 95.4035 35.84 93.7535 35.84C92.1935 35.84 90.8735 36.32 89.7935 37.28C88.7435 38.21 88.0985 39.515 87.8585 41.195H99.6935ZM124.632 30.71C127.602 30.71 130.002 31.655 131.832 33.545C133.662 35.405 134.577 38.015 134.577 41.375V56H128.277V42.23C128.277 40.25 127.782 38.735 126.792 37.685C125.802 36.605 124.452 36.065 122.742 36.065C121.002 36.065 119.622 36.605 118.602 37.685C117.612 38.735 117.117 40.25 117.117 42.23V56H110.817V31.07H117.117V34.175C117.957 33.095 119.022 32.255 120.312 31.655C121.632 31.025 123.072 30.71 124.632 30.71ZM147.903 36.245V48.305C147.903 49.145 148.098 49.76 148.488 50.15C148.908 50.51 149.598 50.69 150.558 50.69H153.483V56H149.523C144.213 56 141.558 53.42 141.558 48.26V36.245H138.588V31.07H141.558V24.905H147.903V31.07H153.483V36.245H147.903ZM193.845 22.7V56H187.545V22.7H193.845ZM203.265 28.1C202.155 28.1 201.225 27.755 200.475 27.065C199.755 26.345 199.395 25.46 199.395 24.41C199.395 23.36 199.755 22.49 200.475 21.8C201.225 21.08 202.155 20.72 203.265 20.72C204.375 20.72 205.29 21.08 206.01 21.8C206.76 22.49 207.135 23.36 207.135 24.41C207.135 25.46 206.76 26.345 206.01 27.065C205.29 27.755 204.375 28.1 203.265 28.1ZM206.37 31.07V56H200.07V31.07H206.37ZM226.364 56L221.234 48.26L216.689 56H209.939L218.084 43.49L209.849 31.07H216.959L222.044 38.765L226.634 31.07H233.384L225.194 43.49L233.474 56H226.364Z" fill="#634CF5"/>
<path d="M182.935 18.092V25.49H167.491V33.482H179.047V40.664H167.491V56H158.257V18.092H182.935Z" fill="#FF6A35"/>
<path d="M45.2513 38.1323L45.3504 38.1819C47.655 39.4704 48.547 42.3697 47.3328 44.699C43.1202 52.7525 34.6455 58.2536 24.907 58.1793C11.3276 58.0801 0.201484 47.0283 0.00324541 33.4489C-0.219774 19.4235 11.0799 8 25.0805 8C32.9853 8 40.0475 11.6674 44.6318 17.3916L35.6615 22.2484C32.787 19.4483 28.7975 17.7633 24.4362 17.9367C16.4323 18.2589 9.98954 24.8751 9.89042 32.9038C9.7913 41.3785 16.6305 48.2673 25.0557 48.2673C30.9038 48.2673 35.9836 44.9716 38.5112 40.1147C39.7997 37.6863 42.8477 36.7942 45.2513 38.1323Z" fill="#634CF5"/>
<path d="M47.4072 21.6537C48.5223 23.8344 47.7293 26.5106 45.5735 27.7L40.0723 30.7479L26.4434 38.3058C24.3123 39.4952 21.6361 38.9005 20.1989 36.9181L20.1493 36.8438C18.4395 34.4897 19.1829 31.1444 21.76 29.7567L35.6863 22.2237L44.6566 17.3668C45.6974 18.7049 46.6142 20.1422 47.4072 21.6537Z" fill="#FF6A35"/>
</svg>
